<svg xmlns="http://www.w3.org/2000/svg" viewBox="0 0 400 100">
  <!-- Icon Group -->
  <g transform="translate(20, 10) scale(0.8)">
    <!-- Red Pin Body -->
    <path d="M50 0C22.4 0 0 22.4 0 50c0 35 45 80 50 85 5-5 50-50 50-85 0-27.6-22.4-50-50-50z" fill="#EF4444"/>
    
    <!-- White Speed Lines at bottom of pin -->
    <path d="M30 90h40v4H30zM35 98h30v4H35zM40 106h20v4H40z" fill="#FFFFFF"/>
    
    <!-- White Circle inside Pin -->
    <circle cx="50" cy="50" r="35" fill="#FFFFFF"/>
    
    <!-- Blue Plane -->
    <path d="M50 35 L55 45 L65 50 L55 55 L50 65 L45 55 L35 50 L45 45 Z" fill="#1D4ED8" transform="translate(50, 50) rotate(45) translate(-50, -50) scale(2)"/>
    <!-- Better Plane Path -->
    <path d="M68 38l-4 4-22 6-4-4 2-10 6-6 22 10z m-32 14l-8 2 2 4 8-2 2-6z m4-12l26 12-2 4-16-6-8-10z" fill="#1D4ED8" transform="translate(30, 30) scale(0.8)"/>
  </g>

  <!-- Text Group -->
  <g transform="translate(110, 60)">
    <text font-family="Arial, sans-serif" font-weight="900" font-size="40">
      <tspan fill="#EF4444">FLIGHT</tspan><tspan fill="#1D4ED8">FARE</tspan><tspan fill="#EF4444">TECH</tspan>
    </text>
    <text x="5" y="25" font-family="Arial, sans-serif" font-weight="bold" font-size="10" fill="#6B7280" letter-spacing="3">GLOBAL TRAVEL MAKER</text>
  </g>
</svg>
